<svg xmlns="http://www.w3.org/2000/svg" xmlns:xlink="http://www.w3.org/1999/xlink" width="107.36" height="35.663" viewBox="0 0 107.36 35.663">
  <defs>
    <radialGradient id="radial-gradient" cx="0.638" cy="0.329" r="0.751" gradientTransform="translate(0)" gradientUnits="objectBoundingBox">
      <stop offset="0.125" stop-color="#ffe300"/>
      <stop offset="0.634" stop-color="#f37e00"/>
    </radialGradient>
  </defs>
  <g id="Group_8199" data-name="Group 8199" transform="translate(-1184 -587)">
    <g id="Group_7" data-name="Group 7" transform="translate(1227.62 592.555)">
      <g id="Group_4" data-name="Group 4" transform="translate(0 4.05)">
        <g id="Group_1" data-name="Group 1">
          <path id="Path_1" data-name="Path 1" d="M64.289,29.157H60.9V16.948L56.837,27.96H53.672L49.754,17V29.157H46.562v-18.9h4.383l4.6,12.853,4.738-12.853h4v18.9Z" transform="translate(-46.562 -10.257)" fill="#100f0c"/>
        </g>
        <g id="Group_2" data-name="Group 2" transform="translate(18.752)">
          <path id="Path_2" data-name="Path 2" d="M76.471,29.157H72.917V13.171H66.573V10.257H82.814v2.914H76.471V29.157Z" transform="translate(-66.573 -10.257)" fill="#100f0c"/>
        </g>
        <g id="Group_3" data-name="Group 3" transform="translate(35.87)">
          <path id="Path_3" data-name="Path 3" d="M88.4,29.157H84.841v-18.9h11.01v2.914H88.4v4.976h6.259v2.89H88.4v8.12Z" transform="translate(-84.841 -10.257)" fill="#100f0c"/>
        </g>
      </g>
      <g id="Group_6" data-name="Group 6" transform="translate(36.507)">
        <g id="Group_5" data-name="Group 5">
          <path id="Path_4" data-name="Path 4" d="M102.147,10.257h-4.58l4.894,8.752c.942-1.362,1.751-2.647,2.435-3.834Z" transform="translate(-86.278 -6.207)" fill="#100f0c"/>
          <path id="Path_5" data-name="Path 5" d="M108.592,29.748h4.58l-5.646-10.1c-.868,1.172-1.771,2.287-2.7,3.36Z" transform="translate(-86.735 -6.798)" fill="#100f0c"/>
          <path id="Path_6" data-name="Path 6" d="M108.331,7.24a38.114,38.114,0,0,1-3.811,8.344c-.7,1.186-1.507,2.462-2.451,3.808A73.081,73.081,0,0,1,85.52,36.043a72.186,72.186,0,0,0,17.741-14.519c.927-1.079,1.829-2.194,2.693-3.373a57.157,57.157,0,0,0,6.8-12.216Z" transform="translate(-85.52 -5.935)" fill="#100f0c"/>
        </g>
      </g>
    </g>
    <g id="Group_13" data-name="Group 13" transform="translate(1184 587)">
      <ellipse id="Ellipse_1" data-name="Ellipse 1" cx="13.486" cy="13.482" rx="13.486" ry="13.482" transform="translate(5.961 4.304)" fill="url(#radial-gradient)"/>
      <g id="Group_10" data-name="Group 10" transform="translate(5.082)">
        <g id="Group_9" data-name="Group 9">
          <path id="Path_37" data-name="Path 37" d="M7.527,13.279A76.639,76.639,0,0,1,22.392,4.653c5.3-2.112,10.227-2.6,12.171,1.456.927,1.936-.139,4.326-2.2,6.793a13.065,13.065,0,0,1,.62,2.1C37.565,10.939,40.666,6.53,38.5,2.987,35.252-2.335,27.393.275,20.087,4.437A104.813,104.813,0,0,0,7.608,13.049l0,0c-.969.772-1.719,1.4-2.187,1.791.463-.354,1.184-.9,2.106-1.56Z" transform="translate(-5.423 0)" fill="#12100d"/>
        </g>
        <path id="Path_38" data-name="Path 38" d="M34.7,6.306C32.76,2.247,27.831,2.737,22.533,4.849A76.64,76.64,0,0,0,7.668,13.475l-.015.043c3.674-2.608,10.429-7.05,15.688-8.5,2.671-.736,4.956-.7,6.254.743a4.581,4.581,0,0,1,1.067,2.454,7.683,7.683,0,0,1,.069,1.7A13.187,13.187,0,0,1,32.5,13.1C34.565,10.63,35.63,8.241,34.7,6.306Z" transform="translate(-5.563 -0.204)" fill="#100f0c" opacity="0.7"/>
      </g>
      <g id="Group_12" data-name="Group 12" transform="translate(0 20.51)">
        <g id="Group_11" data-name="Group 11">
          <path id="Path_39" data-name="Path 39" d="M31.68,23.617a76.745,76.745,0,0,1-14.865,8.626c-5.3,2.112-10.228,2.6-12.171-1.456-.927-1.935.139-4.326,2.2-6.792a13.17,13.17,0,0,1-.619-2.1C1.641,25.956-1.459,30.367.7,33.908c3.251,5.323,11.11,2.712,18.415-1.45A104.776,104.776,0,0,0,31.6,23.848l0,0c.969-.773,1.72-1.4,2.188-1.792-.463.354-1.184.9-2.106,1.56Z" transform="translate(0 -21.894)" fill="#12100d"/>
        </g>
        <path id="Path_40" data-name="Path 40" d="M4.932,30.909C6.875,34.966,11.8,34.477,17.1,32.365a76.7,76.7,0,0,0,14.865-8.627l.014-.043c-3.673,2.609-10.428,7.05-15.687,8.5-2.672.737-4.956.7-6.254-.743A4.567,4.567,0,0,1,8.974,29a7.734,7.734,0,0,1-.07-1.7,13.254,13.254,0,0,1-1.767-3.184C5.071,26.583,4.006,28.973,4.932,30.909Z" transform="translate(-0.289 -22.007)" fill="#100f0c" opacity="0.7"/>
      </g>
    </g>
  </g>
</svg>
