<?xml version="1.0" encoding="UTF-8" standalone="no"?>
<svg
   viewBox="64 64 896 896"
   focusable="false"
   version="1.1"
   id="svg4"
   sodipodi:docname="user-perm.svg"
   inkscape:version="1.1.2 (b8e25be833, 2022-02-05)"
   xmlns:inkscape="http://www.inkscape.org/namespaces/inkscape"
   xmlns:sodipodi="http://sodipodi.sourceforge.net/DTD/sodipodi-0.dtd"
   xmlns="http://www.w3.org/2000/svg"
   xmlns:svg="http://www.w3.org/2000/svg">
  <defs
     id="defs8">
    <linearGradient
       id="linearGradient4309"
       inkscape:swatch="solid">
      <stop
         style="stop-color:#393939;stop-opacity:1;"
         offset="0"
         id="stop4307" />
    </linearGradient>
  </defs>
  <sodipodi:namedview
     id="namedview6"
     pagecolor="#ffffff"
     bordercolor="#666666"
     borderopacity="1.0"
     inkscape:pageshadow="2"
     inkscape:pageopacity="0.0"
     inkscape:pagecheckerboard="0"
     showgrid="false"
     inkscape:zoom="0.81917058"
     inkscape:cx="786.77142"
     inkscape:cy="521.25896"
     inkscape:window-width="1920"
     inkscape:window-height="1017"
     inkscape:window-x="1358"
     inkscape:window-y="-461"
     inkscape:window-maximized="1"
     inkscape:current-layer="svg4" />
  <path
     d="M 694.27883,577.56929 C 674.97627,576.50559 666.44055,568.97222 658.4,563.5 658,563.3 657.6,563.2 657.2,563 719.5,518 760,444.7 760,362 760,225 649,114 512,114 375,114 264,225 264,362 c 0,82.7 40.5,156 102.8,201.1 -0.4,0.2 -0.8,0.3 -1.2,0.5 -44.8,18.9 -85,46 -119.5,80.6 -34.32906,34.25671 -61.69956,74.83704 -80.6,119.5 -18.56778,43.7253 -28.58181,90.60451 -29.5,138.1 -0.11244,4.49617 3.50242,8.20141 8,8.2 h 60 c 4.4,0 7.9,-3.5 8,-7.8 2,-77.2 33,-149.5 87.8,-204.3 56.7,-56.7 132,-87.9 212.2,-87.9 80.2,0 117.04647,18.07697 129.79958,28.0834 -0.4426,-40.04932 20.39756,-62.74636 52.47925,-60.51411 z M 512,534 C 466.1,534 422.9,516.1 390.4,483.6 357.9,451.1 340,407.9 340,362 340,316.1 357.9,272.9 390.4,240.4 422.9,207.9 466.1,190 512,190 c 45.9,0 89.1,17.9 121.6,50.4 32.5,32.5 50.4,75.7 50.4,121.6 0,45.9 -17.9,89.1 -50.4,121.6 C 601.1,516.1 557.9,534 512,534 Z"
     id="path2"
     sodipodi:nodetypes="cccsssccccccscssccsssssssss"
     inkscape:label="path2" />
  <path
     d="m 1929.516,554.62605 v 164.349 c 0,7.57547 -6.1202,13.69575 -13.6958,13.69575 h -273.9149 c -7.5756,0 -13.6958,-6.12028 -13.6958,-13.69575 v -164.349 c 0,-7.57548 6.1202,-13.69576 13.6958,-13.69576 h 29.1035 v -95.87025 c 0,-30.25905 24.5239,-54.78299 54.7829,-54.78299 h 106.1421 c 30.259,0 54.7829,24.52394 54.7829,54.78299 v 95.87025 h 29.1035 c 7.5756,0 13.6958,6.12028 13.6958,13.69576 z m -227.6919,-13.69576 h 154.0773 v -95.87025 c 0,-13.22495 -10.7427,-23.96755 -23.9676,-23.96755 h -106.1421 c -13.2249,0 -23.9676,10.7426 -23.9676,23.96755 z m 196.8765,30.81544 h -239.6757 v 130.10963 h 239.6757 z m -139.3979,47.63313 c 2.7336,-8.49374 10.6369,-14.25156 19.56,-14.25156 8.9232,0 16.8265,5.75782 19.5601,14.25156 2.7335,8.49377 -0.3278,17.78145 -7.5763,22.98558 v 22.6836 c 0,1.88316 -1.5407,3.42393 -3.4239,3.42393 h -17.1196 c -1.8833,0 -3.424,-1.54077 -3.424,-3.42393 v -22.6836 c -7.2485,-5.20413 -10.3098,-14.49181 -7.5763,-22.98558 z"
     id="path3990"
     style="stroke-width:0.736002;stroke-miterlimit:4;stroke-dasharray:none"
     sodipodi:nodetypes="ssssssscsssscssccssssccccccssscsssscs"
     inkscape:label="path3990" />
  <path
     style="-inkscape-stroke:none;paint-order:markers stroke fill;fill-opacity:1"
     d="m 666.32227,724.92773 c -11.05432,0 -20.57813,9.52382 -20.57813,20.57813 v 149.71289 c 0,11.05431 9.52381,20.57813 20.57813,20.57812 h 229.99218 c 11.05432,10e-6 20.57813,-9.52381 20.57813,-20.57812 V 745.50586 c 0,-11.05431 -9.52381,-20.57813 -20.57813,-20.57813 z m 19.42187,40 H 876.89258 V 875.79687 H 685.74414 Z"
     id="rect2752" />
  <path
     id="path4162"
     style="fill-opacity:1;fill-rule:nonzero;stroke-width:0.77079;paint-order:markers stroke fill"
     d="m 779.4701,794.4261 a 16.11756,16.11756 0 0 0 -16.11777,16.11621 16.11756,16.11756 0 0 0 6.12425,12.60234 v 19.70995 c 0,1.43295 1.15394,2.58686 2.58689,2.58686 h 14.83218 c 1.43295,0 2.58681,-1.15391 2.58681,-2.58686 v -19.72561 a 16.11756,16.11756 0 0 0 6.10388,-12.58668 16.11756,16.11756 0 0 0 -16.11624,-16.11621 z" />
  <path
     style="-inkscape-stroke:none"
     d="m 726.80278,593.22852 c -28.79262,0 -52.44141,23.64878 -52.44141,52.4414 v 71.07422 c 0,10.25016 0.74614,18.08491 3.47657,25.31445 2.73042,7.22954 9.08122,13.98435 15.91797,16.50391 13.67348,5.03911 22.20255,0.79233 30.18164,0.85547 l 115.70312,0.91601 c 8.24239,0.0652 17.08371,4.89204 31.53906,0.35743 7.22768,-2.26731 14.23797,-9.18584 17.21875,-16.81055 2.98079,-7.62471 3.80079,-15.99959 3.80079,-27.13672 v -71.07422 c 0,-28.79262 -23.64684,-52.4414 -52.43946,-52.4414 z m 0,30 h 112.95703 c 12.69156,0 22.43946,9.74985 22.43946,22.4414 v 71.07422 c 0,8.21535 -0.86639,12.90734 -1.49805,15.0625 -1.41356,-0.49805 -9.00213,-1.37911 -20.82422,-1.47266 l -115.70313,-0.91601 c -8.94451,-0.0708 -15.7227,0.18286 -18.58203,0.52734 -0.54567,-2.13268 -1.23046,-6.16168 -1.23047,-13.20117 v -71.07422 c 0,-12.69155 9.74985,-22.4414 22.44141,-22.4414 z"
     id="rect2752-1" />
</svg>
